<svg viewBox="0 1 511 511.99999" xmlns="http://www.w3.org/2000/svg" fill="#000000"><path d="m227.410156 27.84375h254.414063v15.003906h-254.414063zm0 0"/><path d="m99.699219 482.160156c12.410156 0 22.507812-10.097656 22.507812-22.507812s-10.097656-22.507813-22.507812-22.507813c-12.410157 0-22.507813 10.097657-22.507813 22.507813s10.097656 22.507812 22.507813 22.507812zm0-30.011718c4.136719 0 7.503906 3.367187 7.503906 7.503906 0 4.136718-3.367187 7.503906-7.503906 7.503906s-7.5-3.367188-7.5-7.503906c0-4.136719 3.363281-7.503906 7.5-7.503906zm0 0"/><path d="m482.324219 236.078125h-165.054688v105.035156h165.054688zm-15.003907 90.03125h-135.042968v-75.027344h135.042968zm0 0"/><path d="m512.335938 416.804688v-416.804688h-415.136719v166.054688h-74.191407c-12.410156 0-22.507812 10.097656-22.507812 22.507812v300.101562c0 12.410157 10.097656 22.503907 22.507812 22.503907h150.050782c12.410156 0 22.507812-10.09375 22.507812-22.503907v-147.550781h96.699219v-105.035156h-96.699219v-15.003906h286.757813v-135.046875h-355.117188v80.027344h-15.003906v-95.363282h385.128906v331.109375h-183l-100.859375 40.179688 100.859375 40.179687h183v29.839844h15.003907v-44.84375h-179.617188l22.863281-25.175781-22.863281-25.175781zm-331.777344 71.859374c0 4.136719-3.363282 7.5-7.5 7.5h-150.050782c-4.136718 0-7.503906-3.363281-7.503906-7.5v-65.523437h165.054688zm-80.859375-161.636718c19.675781 0 35.679687 16.003906 35.679687 35.675781v45.433594h-71.359375v-45.433594c0-19.671875 16.007813-35.675781 35.679688-35.675781zm-22.757813-37.515625c0-12.410157 10.097656-22.507813 22.507813-22.507813 12.410156 0 22.507812 10.097656 22.507812 22.507813 0 12.410156-10.097656 22.507812-22.507812 22.507812-12.410157 0-22.507813-10.097656-22.507813-22.507812zm103.617188 118.625h-30.175782v-45.433594c0-19.261719-10.800781-36.046875-26.664062-44.617187 8.09375-6.886719 13.242188-17.136719 13.242188-28.574219 0-20.683594-16.828126-37.511719-37.511719-37.511719-20.683594 0-37.511719 16.828125-37.511719 37.511719 0 11.527343 5.230469 21.855469 13.4375 28.742187-15.695312 8.621094-26.359375 25.3125-26.359375 44.449219v45.433594h-33.511719v-168.058594h165.054688zm96.699218-157.054688v75.027344h-81.695312v-75.027344zm-135.046874-150.046875h325.105468v105.035156h-271.75v-17.507812c0-12.410156-10.097656-22.507812-22.507812-22.507812h-30.847656zm30.847656 80.023438c4.136718 0 7.5 3.367187 7.5 7.503906v36.511719h-165.054688v-36.511719c0-4.136719 3.367188-7.503906 7.503906-7.503906zm105.199218 270.578125-24.242187-9.65625 24.242187-9.65625zm57.054688-9.65625-21.597656 23.78125-20.453125-8.148438v-31.269531l20.453125-8.144531zm162.019531-386.296875h-385.128906v-40.679688h385.128906zm0 0"/><path d="m44.683594 195.566406h15.003906v15.003906h-15.003906zm0 0"/><path d="m74.691406 195.566406h80.027344v15.003906h-80.027344zm0 0"/><path d="m159.21875 27.84375h15.007812v15.003906h-15.007812zm0 0"/><path d="m189.230469 27.84375h15.003906v15.003906h-15.003906zm0 0"/><path d="m129.210938 27.84375h15.003906v15.003906h-15.003906zm0 0"/><path d="m352.449219 117.371094h98.367187v15.007812h-98.367187zm0 0"/><path d="m304.765625 147.046875h116.039063v15.007813h-116.039063zm0 0"/><path d="m435.808594 147.046875h15.007812v15.007813h-15.007812zm0 0"/><path d="m324.773438 177.058594h126.042968v15.003906h-126.042968zm0 0"/><path d="m264.753906 177.058594h15.003906v15.003906h-15.003906zm0 0"/><path d="m294.765625 177.058594h15.003906v15.003906h-15.003906zm0 0"/><path d="m437.144531 357.117188h15.003907v15.007812h-15.003907zm0 0"/><path d="m347.113281 357.117188h15.003907v15.007812h-15.003907zm0 0"/><path d="m377.125 357.117188h15.003906v15.007812h-15.003906zm0 0"/><path d="m407.132812 357.117188h15.007813v15.007812h-15.007813zm0 0"/></svg>