<svg id="Capa_1" enable-background="new 0 0 512 512" height="512" viewBox="0 0 512 512" width="512" xmlns="http://www.w3.org/2000/svg" fill="#000000"><g><g><path d="m370.423 92.868c-42.165 0-76.469 34.304-76.469 76.469s34.304 76.469 76.474 76.469c44.133.018 77.763-41.005 74.893-84.164-1.159-17.43-8.482-33.986-20.854-46.357-14.257-14.253-33.879-22.417-54.044-22.417zm-.001 137.853c-22.344.237-41.915-11.144-52.82-30.579-6.866-12.238-9.367-26.624-7.753-40.513 3.392-29.182 31.786-51.762 60.574-51.762 33.895 0 61.471 27.576 61.471 61.471 0 34.543-29.24 61.041-61.472 61.383z"/><path d="m383.173 139.344c-3.844-1.531-8.208.349-9.739 4.197l-18.315 46.05c-1.531 3.848.348 8.209 4.197 9.739.909.362 1.847.533 2.769.533 2.981 0 5.801-1.791 6.97-4.73l18.315-46.05c1.531-3.848-.348-8.208-4.197-9.739z"/><path d="m396.252 142.099c-3.548 2.138-4.689 6.747-2.551 10.294l10.01 16.605-10.077 17.399c-2.076 3.583-.854 8.172 2.731 10.248 1.183.685 2.475 1.01 3.751 1.01 2.588 0 5.106-1.341 6.496-3.742l12.299-21.233c1.37-2.365 1.345-5.29-.067-7.63l-12.299-20.4c-2.136-3.547-6.747-4.688-10.293-2.551z"/><path d="m337.135 168.997 10.01-16.605c2.138-3.546.997-8.155-2.551-10.294-3.546-2.137-8.154-.998-10.294 2.551l-12.298 20.4c-1.412 2.341-1.438 5.265-.067 7.63l12.298 21.233c1.391 2.401 3.909 3.742 6.496 3.742 1.276 0 2.569-.325 3.752-1.01 3.585-2.076 4.807-6.665 2.731-10.248z"/><path d="m52.798 68.008c0 5.543 4.494 10.037 10.037 10.037s10.037-4.494 10.037-10.037-4.494-10.037-10.037-10.037-10.037 4.494-10.037 10.037z"/><path d="m91.19 68.008c0 5.543 4.494 10.037 10.037 10.037s10.037-4.494 10.037-10.037-4.494-10.037-10.037-10.037c-5.544 0-10.037 4.494-10.037 10.037z"/><path d="m129.582 68.008c0 5.543 4.494 10.037 10.037 10.037s10.037-4.494 10.037-10.037-4.494-10.037-10.037-10.037c-5.544 0-10.037 4.494-10.037 10.037z"/><path d="m486.749 29.271-41.222.003c-4.141 0-7.498 3.358-7.498 7.5 0 4.141 3.358 7.498 7.5 7.498l41.221-.003c5.653 0 10.252 4.599 10.252 10.252v39.043h-49.813c-19.58-19.834-46.76-32.147-76.766-32.147-30.005 0-57.185 12.313-76.765 32.147h-278.658v-39.043c0-5.653 4.599-10.252 10.252-10.252h385.406c4.142 0 7.499-3.357 7.499-7.499s-3.357-7.499-7.499-7.499h-385.406c-13.923 0-25.25 11.327-25.25 25.25l-.002 283.388c0 4.142 3.357 7.499 7.499 7.499s7.499-3.357 7.499-7.499v-229.347h266.293c-5.842 8.541-10.484 17.963-13.696 28.018h-211.439c-4.142 0-7.499 3.357-7.499 7.499v67.944c0 4.142 3.357 7.499 7.499 7.499h218.75c16.993 32.207 49.797 54.834 88.017 57.47v29.566h-16.273c-4.142 0-7.499 3.357-7.499 7.499v105.753c0 17.243 14.029 31.272 31.272 31.272 17.244 0 31.273-14.029 31.273-31.272v-105.752c0-4.142-3.357-7.499-7.499-7.499h-16.275v-29.566c56.022-3.864 100.421-50.669 100.421-107.656 0-22.523-6.94-43.454-18.787-60.775h37.444v348.917c0 5.653-4.599 10.252-10.252 10.252h-461.498c-5.653 0-10.252-4.599-10.252-10.252v-84.772c0-4.142-3.357-7.499-7.499-7.499s-7.499 3.357-7.499 7.499v84.772c0 13.924 11.327 25.25 25.25 25.25h461.498c13.923 0 25.25-11.327 25.25-25.25l.002-402.958c0-13.923-11.327-25.25-25.251-25.25zm-423.093 175.253v-52.946h200.326c-.962 5.781-1.478 11.709-1.478 17.759 0 12.315 2.077 24.153 5.894 35.187zm323.042 117.034v98.253c0 8.974-7.301 16.273-16.275 16.273s-16.274-7.3-16.274-16.273v-98.253zm76.647-152.221c0 10.917-1.923 21.815-5.7 32.06-13.705 37.171-49.733 60.348-87.223 60.687-50.513.457-92.92-42.539-92.92-92.747 0-51.238 41.684-92.922 92.921-92.922 51.238 0 92.922 41.684 92.922 92.922z"/><path d="m143.597 443.584v-201.828c0-4.142-3.357-7.499-7.499-7.499s-7.499 3.357-7.499 7.499v201.827c0 4.142 3.357 7.499 7.499 7.499s7.499-3.356 7.499-7.498z"/><path d="m56.156 268.064h41.328c4.142 0 7.499-3.357 7.499-7.499s-3.357-7.499-7.499-7.499h-41.328c-4.142 0-7.499 3.357-7.499 7.499s3.357 7.499 7.499 7.499z"/><path d="m56.156 300.907h41.328c4.142 0 7.499-3.357 7.499-7.499s-3.357-7.499-7.499-7.499h-41.328c-4.142 0-7.499 3.357-7.499 7.499s3.357 7.499 7.499 7.499z"/><path d="m56.156 333.749h41.328c4.142 0 7.499-3.357 7.499-7.499s-3.357-7.499-7.499-7.499h-41.328c-4.142 0-7.499 3.357-7.499 7.499s3.357 7.499 7.499 7.499z"/><path d="m56.156 366.591h41.328c4.142 0 7.499-3.357 7.499-7.499s-3.357-7.499-7.499-7.499h-41.328c-4.142 0-7.499 3.357-7.499 7.499s3.357 7.499 7.499 7.499z"/><path d="m56.156 399.433h41.328c4.142 0 7.499-3.357 7.499-7.499s-3.357-7.499-7.499-7.499h-41.328c-4.142 0-7.499 3.357-7.499 7.499s3.357 7.499 7.499 7.499z"/><path d="m56.156 432.276h41.328c4.142 0 7.499-3.357 7.499-7.499s-3.357-7.499-7.499-7.499h-41.328c-4.142 0-7.499 3.357-7.499 7.499s3.357 7.499 7.499 7.499z"/></g></g></svg>