<svg height="512pt" viewBox="0 0 512 512.00087" width="512pt" xmlns="http://www.w3.org/2000/svg" fill="#000000"><path d="m250.460938 71.367188h-39.195313v84.648437h-36.324219l75.519532 76.222656zm-15 124.417968-24.542969-24.773437h15.351562v-84.644531h9.195313v109.417968zm0 0"/><path d="m337.054688 147.683594-75.523438-76.226563v160.871094h39.195312v-84.644531zm-51.328126-15v84.644531h-9.195312v-109.417969l24.542969 24.773438zm0 0"/><path d="m418.351562 122.011719c-3.167968-67.8125-59.328124-122.011719-127.910156-122.011719-52.328125 0-97.203125 31.351562-117.042968 76.03125-34.21875-13.257812-71.289063 9.640625-75.542969 45.382812-55.382813 6.882813-97.855469 54.355469-97.855469 110.878907 0 61.617187 50.128906 111.746093 111.746094 111.746093h10.207031v-15h-10.207031c-53.347656 0-96.746094-43.402343-96.746094-96.746093 0-50.875 39.730469-93.277344 90.449219-96.535157l7.0625-.453124c0-.222657-.042969-7.125-.050781-7.347657.050781-22.449219 18.328124-40.695312 40.789062-40.695312 7.140625 0 14.179688 1.882812 20.351562 5.449219l7.699219 4.445312 3.085938-8.339844c16.339843-44.152344 58.960937-73.816406 106.054687-73.816406 62.335938 0 113.050782 50.714844 113.050782 113.050781l-.027344 7.316407 6.753906.691406c49.472656 5.058594 86.777344 46.429687 86.777344 96.234375 0 53.34375-43.398438 96.746093-96.746094 96.746093h-10.207031v15h10.207031c61.617188 0 111.746094-50.128906 111.746094-111.746093 0-54.910157-39.902344-101.519531-93.644532-110.28125zm0 0"/><path d="m356.578125 207.230469c-10.40625-3.195313-25.125-5.851563-42.566406-7.683594l-1.566407 14.917969c29.316407 3.078125 43.035157 7.640625 48.1875 10.394531-9.722656 5.238281-45.226562 13.070313-104.636718 13.070313-59.367188 0-94.863282-7.820313-104.613282-13.058594 5.707032-3.007813 21.753907-8.210938 56.34375-11.183594l-1.285156-14.945312c-19.664062 1.6875-36.394531 4.355468-48.390625 7.71875-10.128906 2.835937-23.601562 7.828124-23.601562 18.367187v67.554687c0 5.671876 3.746093 10.277344 11.746093 14.101563-8.003906 3.816406-11.746093 8.417969-11.746093 14.101563v67.554687c0 5.671875 3.746093 10.277344 11.746093 14.097656-8.003906 3.820313-11.746093 8.417969-11.746093 14.101563v67.554687c0 10.234375 12.203125 17.003907 39.570312 21.949219 45.453125 8.210938 118.496094 8.210938 163.953125 0 27.367188-4.945312 39.570313-11.710938 39.570313-21.949219v-67.554687c0-5.683594-3.742188-10.28125-11.742188-14.101563 7.996094-3.820312 11.742188-8.425781 11.742188-14.097656v-67.554687c0-5.683594-3.742188-10.285157-11.742188-14.101563 7.996094-3.824219 11.742188-8.429687 11.742188-14.101563v-67.554687c.003906-10-11.964844-14.832031-20.964844-17.597656zm5.96875 33.117187v50.804688c-5.808594 5.125-42.125 14.332031-106.546875 14.332031-64.425781 0-100.738281-9.207031-106.546875-14.332031v-50.804688c42.84375 17.105469 172.140625 16.347656 213.09375 0zm-213.097656 95.757813c42.886719 17.117187 172.199219 16.324219 213.097656 0v50.800781c-5.808594 5.125-42.125 14.332031-106.546875 14.332031-64.425781 0-100.738281-9.207031-106.546875-14.332031v-50.800781zm106.546875 160.890625c-64.421875 0-100.738282-9.207032-106.546875-14.332032v-50.804687c42.847656 17.105469 172.144531 16.347656 213.097656 0v50.804687c-5.8125 5.125-42.125 14.332032-106.550781 14.332032zm104.59375-80.597656c-9.785156 5.234374-45.273438 13.042968-104.59375 13.042968-59.316406 0-94.804688-7.808594-104.59375-13.042968 2.910156-1.566407 9.046875-4.039063 21.480468-6.519532 46.058594 8.535156 120.695313 8.4375 166.230469 0 12.429688 2.480469 18.566407 4.953125 21.476563 6.519532zm0-95.757813c-9.785156 5.238281-45.273438 13.042969-104.59375 13.042969-59.316406 0-94.804688-7.804688-104.59375-13.042969 2.910156-1.566406 9.046875-4.039063 21.480468-6.519531 45.5625 8.445312 119.390626 8.464844 165.089844.207031.382813-.066406.761719-.136719 1.136719-.207031 12.433594 2.480468 18.574219 4.953125 21.480469 6.519531zm0 0"/><path d="m400.253906 319.039062v-15c22.753906 0 44.40625-11.007812 57.914063-29.449218l12.101562 8.863281c-16.324219 22.28125-42.496093 35.585937-70.015625 35.585937zm75.910156-44.796874-13.117187-7.273438c2.191406-3.957031 4.015625-8.136719 5.417969-12.417969l14.257812 4.664063c-1.699218 5.183594-3.90625 10.242187-6.558594 15.027344zm9.292969-25.636719-14.734375-2.8125c.84375-4.417969 1.273438-8.960938 1.273438-13.5h15c0 5.480469-.515625 10.96875-1.539063 16.3125zm0 0"/><path d="m255.996094 295.523438v-15c4.957031 0 9.941406-.058594 14.824218-.171876l.355469 14.996094c-5 .117188-10.105469.175782-15.179687.175782zm25.300781-.5-.605469-14.988282c4.996094-.203125 9.96875-.46875 14.777344-.792968l1.011719 14.964843c-4.941407.332031-10.050781.609375-15.183594.816407zm25.308594-1.601563-1.316407-14.941406c17.546876-1.546875 32.535157-3.894531 43.339844-6.785157l3.875 14.492188c-11.632812 3.109375-27.503906 5.609375-45.898437 7.234375zm0 0"/><path d="m255.996094 391.238281v-15c4.957031 0 9.941406-.058593 14.824218-.171875l.355469 14.996094c-5 .117188-10.105469.175781-15.179687.175781zm25.300781-.5-.605469-14.988281c4.996094-.199219 9.96875-.46875 14.777344-.792969l1.011719 14.964844c-4.941407.335937-10.050781.609375-15.183594.816406zm25.308594-1.601562-1.316407-14.941407c17.546876-1.546874 32.535157-3.894531 43.339844-6.78125l3.875 14.488282c-11.632812 3.109375-27.503906 5.613281-45.898437 7.234375zm0 0"/><path d="m255.996094 487.035156v-15c4.957031 0 9.941406-.058594 14.824218-.175781l.355469 14.996094c-5 .117187-10.105469.179687-15.179687.179687zm25.300781-.503906-.605469-14.988281c4.996094-.199219 9.96875-.46875 14.777344-.792969l1.011719 14.964844c-4.941407.335937-10.050781.609375-15.183594.816406zm25.308594-1.601562-1.316407-14.941407c17.542969-1.546875 32.53125-3.894531 43.34375-6.78125l3.871094 14.492188c-11.632812 3.109375-27.503906 5.609375-45.898437 7.230469zm0 0"/></svg>